<?xml version="1.0" encoding="utf-8"?>
<!-- Generator: Adobe Illustrator 16.0.0, SVG Export Plug-In . SVG Version: 6.00 Build 0)  -->
<!DOCTYPE svg PUBLIC "-//W3C//DTD SVG 1.1//EN" "http://www.w3.org/Graphics/SVG/1.1/DTD/svg11.dtd">
<svg version="1.1" xmlns="http://www.w3.org/2000/svg" xmlns:xlink="http://www.w3.org/1999/xlink" x="0px" y="0px" width="200px"
	 height="200px" viewBox="0 0 200 200" enable-background="new 0 0 200 200" xml:space="preserve">
<g id="EnvelopeBack">
	<rect x="31" y="55" fill="#FFFFFF" width="142" height="88.333"/>
</g>
<g id="Envelopoe">
	<g>
		<path fill="#010101" d="M28.667,52.667v94.583h146.64V52.667H28.667z M39.203,57.766c0.384,0.107,0.785,0.104,1.171-0.003
			c1.637-0.031,3.282,0,4.915,0.049c0.731-0.12,1.466-0.063,2.195,0.018c1.303-0.154,2.613-0.047,3.92-0.081
			c2.87,0.057,5.746-0.046,8.615,0.034l0.176,0.164l0.183-0.187l0.364,0.003l0.186,0.176c0.709-0.415,1.662-0.098,2.466-0.171
			c1.687,0.127,3.402,0.13,5.089,0c1.794-0.041,3.59,0,5.387-0.022c0.398,0.062,0.94-0.163,1.234,0.203
			c0.445-0.408,1.159-0.114,1.713-0.2c0.474,0.073,1.104-0.193,1.464,0.203c0.528-0.431,1.339-0.115,1.982-0.186
			c0.384,0.104,0.785,0.104,1.168-0.003c3.678-0.039,7.354,0.039,11.03-0.02c2.375,0.12,4.766-0.096,7.146,0.042l0.181,0.151
			c0.317-0.345,0.838-0.145,1.246-0.174c0.384,0.11,0.787,0.11,1.171,0c2.532-0.052,5.066,0.034,7.599-0.02
			c0.398,0.047,0.906-0.132,1.225,0.186c0.332-0.288,0.66-0.286,0.982,0.01c0.352-0.369,0.94-0.122,1.391-0.2l0.073,0.765
			l0.073-0.76c3.256,0.066,6.516-0.061,9.766,0.042l0.182,0.151c0.308-0.338,0.823-0.137,1.223-0.191
			c3.691,0.025,7.381,0,11.063,0.04l0.18,0.153c0.996-0.467,2.245,0.015,3.34-0.207l0.081,0.535l0.081-0.526
			c2.523,0.089,5.037-0.041,7.559,0.045l0.182,0.151c0.472-0.384,1.17-0.122,1.736-0.171c0.383,0.104,0.783,0.107,1.169,0
			c0.565,0.049,1.259-0.211,1.737,0.168l0.182-0.148c1.295-0.094,2.601,0.002,3.9-0.042l0.073,1.068l0.071-1.068
			c2.035,0.071,4.074-0.054,6.104,0.039l0.179,0.161l0.179-0.161c1.171-0.093,2.349,0.013,3.524-0.046
			c-14.82,12.496-29.553,25.097-44.347,37.625c-3.026,2.627-6.274,5.074-9.974,6.666c-3.202,1.439-6.719,2.24-10.236,2.152
			c-3.644-0.02-7.224-1.051-10.479-2.645c-3.502-1.686-6.562-4.13-9.48-6.669C66.957,82.501,52.408,70.093,37.81,57.744
			C38.274,57.744,38.738,57.751,39.203,57.766z M36.154,136.16c-0.363,0.354-0.698,0.752-1.067,1.072
			c-0.132,0.115-1.249,1.129-1.206,0.451c-0.042,0.102-0.141,0.189-0.18,0.285c0.022-0.055-0.241-0.711-0.254-0.846
			c-0.041-0.398,0.032-0.805,0.1-1.193c0.198-1.127,0.127-2.23,0.099-3.369c-0.065-2.635,0.004-5.297,0.04-7.934
			c0.073-5.354-0.041-10.711-0.027-16.063c0.015-5.336,0.007-10.673-0.007-16.009c-0.014-5.338,0.022-10.676-0.007-16.014
			c-0.027-5.006,0.083-10.02,0.034-15.023c-0.002-0.276-0.019-0.552-0.048-0.826c5.726,4.67,11.257,9.605,16.887,14.393
			c5.655,4.808,11.314,9.611,16.969,14.421c1.584,1.348,3.168,2.695,4.751,4.044c1.568,1.336,3.359,2.601,4.769,4.094
			c-0.62,1.007-1.72,1.775-2.568,2.58c-0.886,0.84-1.784,1.664-2.66,2.518c-1.541,1.502-3.084,2.871-4.612,4.359
			c-0.484,0.471-1.082,0.805-1.587,1.252c-0.4,0.354-0.551,0.781-0.871,1.162c-0.454,0.537-1.132,0.822-1.652,1.289
			c-0.587,0.525-1.031,1.186-1.542,1.781c-0.868,1.01-2.045,1.795-3.017,2.705c-0.915,0.857-1.768,1.777-2.677,2.639
			c-0.807,0.764-1.819,1.309-2.532,2.174c-0.718,0.869-1.442,1.688-2.302,2.424c-0.845,0.723-1.832,1.311-2.628,2.084
			c-0.732,0.709-1.204,1.633-1.884,2.387c-0.883,0.979-2.286,1.313-3.125,2.342c-0.327,0.4-0.415,0.801-0.822,1.15
			c-0.387,0.334-0.852,0.568-1.257,0.877c-0.64,0.486-1.322,0.934-1.88,1.518c-0.531,0.555-0.711,1.34-1.237,1.896
			c-0.353,0.371-0.832,0.541-1.263,0.795C36.622,135.732,36.382,135.938,36.154,136.16z M79.744,142.242
			c-14.175-0.016-28.35,0.033-42.525-0.023c0.161-0.068,0.484-0.201,0.645-0.268l-0.049-0.248l0.311,0.082l-0.076-0.32l0.278,0.111
			l-0.032-0.301l0.21,0.006c0.89-0.842,1.682-1.824,2.688-2.523c0.063-0.256,0.225-0.424,0.481-0.496
			c0.098-0.27,0.291-0.43,0.575-0.486l-0.044-0.238l0.32,0.086l-0.09-0.32l0.293,0.104l-0.044-0.301l0.281,0.031l0.002-0.195
			c1.2-0.934,2.146-2.158,3.343-3.094c0.11-0.246,0.301-0.406,0.567-0.479l-0.029-0.221l0.288,0.066l-0.042-0.293l0.267,0.063
			l-0.022-0.275h0.195c1.12-1.105,2.222-2.242,3.415-3.27c0.125-0.223,0.31-0.379,0.552-0.475l-0.012-0.16l0.237-0.045l0.056-0.23
			l0.21,0.041l0.01-0.197c1.347-1.115,2.505-2.441,3.827-3.586c0.19-0.213,0.398-0.408,0.611-0.596
			c8.039-7.605,16.067-15.225,24.098-22.84c0.176-0.234,0.525-0.393,0.78-0.168c4.179,3.379,9.016,6.07,14.285,7.283
			c1.281,0.344,2.61,0.439,3.913,0.682c3.962,0.254,7.982-0.215,11.726-1.555c4.27-1.467,8.178-3.861,11.65-6.727
			c8.396,8,16.854,15.934,25.225,23.957c0.287,0.188,0.536,0.432,0.756,0.697c1.254,1.131,2.456,2.324,3.654,3.514l0.124,0.01
			c0.078,0.068,0.229,0.205,0.308,0.273v0.137c0.234,0.102,0.421,0.258,0.558,0.471c0.208,0.119,0.372,0.287,0.489,0.5
			c1.109,0.854,1.977,1.986,3.088,2.842l0.008,0.199l0.232-0.037l0.02,0.258l0.262-0.021l-0.037,0.189
			c0.257,0.088,0.445,0.248,0.569,0.484c0.232,0.098,0.396,0.26,0.487,0.494c1.048,0.746,1.813,1.824,2.842,2.6l0.015,0.186
			l0.265-0.02l-0.021,0.277l0.296-0.041l-0.061,0.313l0.313-0.121l-0.127,0.35l0.33-0.137l-0.037,0.266
			c0.291,0.051,0.482,0.215,0.574,0.49c0.262,0.068,0.424,0.236,0.482,0.5c1.014,0.67,1.773,1.682,2.686,2.49
			c0.132,0.057,0.394,0.172,0.525,0.229C137.728,142.277,108.734,142.227,79.744,142.242z M170.232,138.902
			c-0.27-0.568-0.795-0.852-1.23-1.275c-0.447-0.436-0.777-0.939-1.355-1.221c0.121-0.012,0.25-0.057,0.374-0.059
			c-0.737-0.078-1.56-0.75-1.895-1.385c0.339-0.096,0.698-0.123,1.049-0.16c-0.528-0.018-0.921-0.287-1.207-0.715
			c-0.238-0.355-0.435-0.783-0.511-1.203c-0.189,0.357-0.182,0.855-0.139,1.266c-0.022-0.213-0.078-0.424-0.164-0.617
			c-0.07,0.049-0.23,0.066-0.305,0.121c-0.538-0.797-1.063-1.342-1.865-1.857c-0.828-0.533-1.42-1.27-2.101-1.967
			c-0.691-0.709-1.558-2.08-2.585-2.273c0.009-0.082,0.006-0.188,0.02-0.264c-0.088,0.014-0.188,0.018-0.275,0.037
			c0.021-0.09,0.027-0.191,0.055-0.281c-0.087,0.033-0.189,0.047-0.276,0.078c0.034-0.09,0.032-0.215,0.057-0.309
			c-0.079,0.043-0.223,0.049-0.3,0.09c0.013-0.066,0.025-0.133,0.036-0.197c-1.438-0.658-2.167-2.955-3.695-3.313
			c-0.017-0.063-0.017-0.188-0.012-0.25c-0.083-0.01-0.175,0.016-0.257,0.023c0.017-0.088,0.029-0.178,0.04-0.266
			c-0.087,0.018-0.182,0.027-0.266,0.051c0.009-0.094,0.015-0.197,0.032-0.289c-0.08,0.037-0.191,0.045-0.275,0.074
			c0.017-0.363-1.684-1.725-2.093-2.094c-0.362-0.326-1.454-1.645-1.806-1.65c-0.012-0.072-0.016-0.146-0.008-0.221
			c-0.096-0.018-0.168,0.014-0.264,0.002c0.014-0.082,0.029-0.164,0.037-0.248c-0.092,0.012-0.18,0.027-0.272,0.029
			c0.011-0.094,0.011-0.193,0.026-0.287c-0.083,0.031-0.18,0.045-0.262,0.076c-0.03-0.354-0.777-0.734-1.059-1.016
			c-0.326-0.326-0.611-0.691-0.951-1.006c-0.566-0.525-1.389-0.967-1.682-1.719c-0.076,0.012-0.15,0.016-0.227,0.008
			c-0.009-0.084,0.002-0.164,0.008-0.248c-0.068,0.023-0.138,0.033-0.209,0.031c-0.02-0.072-0.039-0.146-0.059-0.221
			c-0.073-0.023-0.147-0.039-0.223-0.047c-0.121-0.336-0.734-0.623-1.023-0.908c-0.352-0.346-0.686-0.721-1.02-1.084
			c-0.531-0.58-1.073-1.473-1.871-1.693c0-0.061,0-0.119-0.002-0.18c-0.197-0.133-0.145-0.09-0.281-0.285
			c-0.076,0.014-0.16,0.029-0.229,0.02c-0.229-0.646-0.856-1.072-1.366-1.488c-0.715-0.586-1.36-1.23-2.025-1.873
			c-2.029-1.959-4.115-3.867-6.182-5.787c-1.137-1.057-2.287-2.09-3.375-3.196c0.998-1.317,2.636-2.281,3.903-3.326
			c1.428-1.176,2.829-2.388,4.237-3.586c2.876-2.444,5.742-4.898,8.617-7.345c5.811-4.947,11.633-9.884,17.449-14.826
			c1.605-1.364,3.222-2.718,4.812-4.1c1.451-1.262,2.85-2.863,4.517-3.832c0.451,2.314,0.047,4.867,0.022,7.209
			c-0.027,2.56-0.009,5.12-0.011,7.68c-0.006,5.141-0.01,10.282-0.013,15.424s-0.005,10.283-0.007,15.425
			c-0.004,5.141-0.004,10.279-0.01,15.418c-0.006,5.129-0.143,10.256,0.012,15.383C170.313,137.756,170.355,138.336,170.232,138.902
			z"/>
	</g>
</g>
<g id="Arrow">
	<g>
		
			<rect x="100.334" y="19.333" fill="#FFFFFF" stroke="#000000" stroke-width="5" stroke-miterlimit="10" width="83.333" height="49"/>
		<polygon fill="#FFFFFF" stroke="#000000" stroke-width="5" stroke-miterlimit="10" points="100.334,83.323 61.679,44.667 
			100.334,6.012 		"/>
		<rect x="96.667" y="21.813" fill="#FFFFFF" width="9" height="44.021"/>
	</g>
</g>
<g id="Layer_4">
	<g>
		
			<rect x="18.5" y="130" fill="#FFFFFF" stroke="#000000" stroke-width="5" stroke-miterlimit="10" width="83.333" height="49.001"/>
		<polygon fill="#FFFFFF" stroke="#000000" stroke-width="5" stroke-miterlimit="10" points="101.833,193.989 140.488,155.334 
			101.833,116.679 		"/>
		<rect x="96.5" y="132.479" fill="#FFFFFF" width="9" height="44.021"/>
	</g>
</g>
</svg>
