<?xml version="1.0" encoding="UTF-8" ?>
<!DOCTYPE svg PUBLIC "-//W3C//DTD SVG 1.1//EN" "http://www.w3.org/Graphics/SVG/1.1/DTD/svg11.dtd">
<svg width="112pt" height="160pt" viewBox="0 0 112 160" version="1.1" xmlns="http://www.w3.org/2000/svg">
<path fill="#fefefe" d=" M 0.00 0.00 L 112.00 0.00 L 112.00 160.00 L 0.00 160.00 L 0.00 0.00 Z" />
<path fill="#eaa5a5" d=" M 33.66 15.53 C 36.80 13.66 40.32 11.34 44.15 12.68 C 40.88 14.71 37.03 15.70 34.00 18.12 C 28.63 22.10 25.33 28.47 24.44 35.02 C 23.89 38.05 23.98 41.44 21.98 43.98 C 20.14 46.45 17.63 49.01 14.23 48.54 C 16.54 44.31 20.52 40.91 21.38 35.95 C 23.03 28.05 26.84 20.19 33.66 15.53 Z" />
<path fill="#fe5b5b" d=" M 44.15 12.68 C 45.86 12.69 47.56 12.71 49.26 12.72 C 48.92 17.60 50.55 23.00 48.48 27.51 C 48.12 27.34 47.41 27.01 47.06 26.84 C 44.31 28.77 41.28 30.77 39.96 34.01 C 38.78 37.23 38.82 40.73 37.89 44.01 C 36.24 50.10 32.50 55.83 26.90 58.93 C 24.26 60.61 20.79 60.84 18.71 63.36 C 17.13 63.14 14.61 64.03 13.79 62.20 C 13.37 57.68 13.67 53.12 13.62 48.57 L 14.23 48.54 C 17.63 49.01 20.14 46.45 21.98 43.98 C 23.98 41.44 23.89 38.05 24.44 35.02 C 25.33 28.47 28.63 22.10 34.00 18.12 C 37.03 15.70 40.88 14.71 44.15 12.68 Z" />
<path fill="#eaa5a5" d=" M 26.44 31.29 C 29.36 21.82 38.37 15.20 48.01 13.87 C 47.99 17.91 48.01 21.94 48.00 25.97 C 42.68 26.87 37.95 31.41 38.16 37.04 C 37.80 45.31 33.91 53.44 27.02 58.22 L 26.16 58.01 C 23.82 57.22 20.61 58.16 19.07 55.82 C 17.50 54.03 17.55 51.57 17.36 49.34 C 19.34 48.12 21.45 46.88 22.79 44.91 C 25.62 40.91 24.58 35.67 26.44 31.29 Z" />
<path fill="#eaa5a5" d=" M 39.96 34.01 C 41.28 30.77 44.31 28.77 47.06 26.84 C 47.46 27.62 48.27 29.17 48.67 29.94 C 44.80 30.95 43.45 35.27 42.04 38.54 C 40.36 46.71 36.85 55.04 29.89 60.08 C 26.54 62.09 22.83 64.68 18.71 63.36 C 20.79 60.84 24.26 60.61 26.90 58.93 C 32.50 55.83 36.24 50.10 37.89 44.01 C 38.82 40.73 38.78 37.23 39.96 34.01 Z" />
<path fill="#fefefe" d=" M 15.14 50.03 C 15.90 49.88 16.64 49.65 17.36 49.34 C 17.55 51.57 17.50 54.03 19.07 55.82 C 20.61 58.16 23.82 57.22 26.16 58.01 C 22.65 60.02 18.88 61.55 14.84 61.98 C 15.09 58.00 15.47 54.02 15.14 50.03 Z" />
<path fill="#eaa5a5" d=" M 51.11 98.05 C 57.46 93.72 65.37 92.13 72.96 92.49 C 78.32 92.52 83.68 92.42 89.05 92.51 C 92.02 92.57 95.12 93.50 97.15 95.78 C 86.10 96.32 75.01 95.76 63.95 96.06 C 52.86 97.35 43.29 106.74 42.07 117.89 C 41.74 126.99 42.32 136.11 41.78 145.20 C 38.78 142.76 38.53 138.57 38.46 135.00 C 38.57 130.32 38.36 125.64 38.55 120.96 C 39.53 112.17 43.35 102.93 51.11 98.05 Z" />
<path fill="#fe5b5b" d=" M 42.07 117.89 C 43.29 106.74 52.86 97.35 63.95 96.06 C 75.01 95.76 86.10 96.32 97.15 95.78 L 98.32 95.68 L 98.21 96.85 C 97.87 112.92 97.85 129.03 98.22 145.10 L 98.32 146.31 L 97.17 146.22 C 92.40 145.81 87.61 146.09 82.83 146.00 C 82.02 134.97 82.65 123.91 82.12 112.88 C 79.56 115.60 78.17 119.20 78.26 122.95 C 78.22 130.63 78.14 138.32 77.99 146.00 C 72.94 145.99 67.90 146.03 62.85 146.00 C 62.07 134.98 62.69 123.93 62.15 112.90 C 60.17 114.71 57.97 116.70 57.87 119.59 C 57.12 128.37 57.99 137.22 57.14 146.00 C 52.37 146.05 47.59 145.83 42.83 146.22 L 41.68 146.31 L 41.78 145.20 C 42.32 136.11 41.74 126.99 42.07 117.89 Z" />
<path fill="#eaa5a5" d=" M 66.41 97.43 C 76.61 97.30 86.82 97.36 97.01 96.99 C 96.48 112.99 96.67 129.00 97.00 145.00 C 92.66 144.97 88.32 145.02 83.97 144.97 C 84.04 141.23 84.15 137.49 84.46 133.76 C 85.50 135.78 86.12 138.40 88.39 139.43 C 89.91 139.55 91.70 139.90 93.07 139.10 C 95.19 136.23 95.48 132.44 95.51 128.98 C 95.40 121.98 95.54 114.98 95.50 107.98 C 95.73 103.71 92.14 100.03 88.34 98.71 C 82.57 98.16 76.75 98.48 70.96 98.50 C 69.42 98.41 67.52 98.85 66.41 97.43 Z" />
<path fill="#eaa5a5" d=" M 98.21 96.85 C 101.15 99.28 101.47 103.44 101.54 106.99 C 101.50 116.64 101.52 126.29 101.53 135.94 C 101.42 139.16 101.03 143.04 98.22 145.10 C 97.85 129.03 97.87 112.92 98.21 96.85 Z" />
<path fill="#eaa5a5" d=" M 50.61 104.55 C 54.89 100.66 60.43 97.45 66.43 98.21 C 64.17 99.68 61.34 99.74 59.03 101.09 C 51.91 104.88 46.74 112.05 45.35 120.00 C 44.18 125.87 43.75 132.32 46.13 137.94 C 46.90 140.24 49.77 139.53 51.61 139.41 C 54.52 137.95 54.48 134.25 55.15 131.50 C 56.17 135.92 55.80 140.50 56.03 145.00 C 51.68 144.99 47.34 144.98 42.99 145.00 C 42.96 138.34 43.46 131.68 43.22 125.02 C 42.83 117.60 45.27 109.83 50.61 104.55 Z" />
<path fill="#eaa5a5" d=" M 57.87 119.59 C 57.97 116.70 60.17 114.71 62.15 112.90 C 62.69 123.93 62.07 134.98 62.85 146.00 C 67.90 146.03 72.94 145.99 77.99 146.00 C 78.14 138.32 78.22 130.63 78.26 122.95 C 78.17 119.20 79.56 115.60 82.12 112.88 C 82.65 123.91 82.02 134.97 82.83 146.00 C 87.61 146.09 92.40 145.81 97.17 146.22 C 91.33 151.80 83.26 145.95 76.43 147.76 C 71.74 149.13 66.60 148.97 62.11 146.99 C 59.34 145.83 56.65 147.63 54.00 148.24 C 50.20 148.85 45.72 149.30 42.83 146.22 C 47.59 145.83 52.37 146.05 57.14 146.00 C 57.99 137.22 57.12 128.37 57.87 119.59 Z" />
<path fill="#eaa5a5" d=" M 64.07 138.18 C 66.23 139.50 68.25 141.78 71.03 141.36 C 73.40 141.28 74.99 139.23 76.94 138.17 C 76.96 140.44 77.00 142.72 77.00 144.99 C 72.66 145.00 68.32 144.97 63.98 144.99 C 64.01 142.72 64.04 140.45 64.07 138.18 Z" />
</svg>
