<?xml version="1.0" encoding="utf-8"?>
<!-- Generator: Adobe Illustrator 16.0.0, SVG Export Plug-In . SVG Version: 6.00 Build 0)  -->
<!DOCTYPE svg PUBLIC "-//W3C//DTD SVG 1.1//EN" "http://www.w3.org/Graphics/SVG/1.1/DTD/svg11.dtd">
<svg version="1.1" xmlns="http://www.w3.org/2000/svg" xmlns:xlink="http://www.w3.org/1999/xlink" x="0px" y="0px" width="1508px"
	 height="833px" viewBox="0 0 1508 833" enable-background="new 0 0 1508 833" xml:space="preserve">
<g id="Layer_1">
	<g>
		<path fill="#010101" d="M101.83,31.91c2.8-5.26,10.09-4.68,14.59-2.03c1.16,3.71,1.91,8.05-0.22,11.56
			c-3.09,5.41-5.63,11.21-6.77,17.35c-0.1,3.87,4.32,5.28,6.85,7.29c3.96,3.46,8.71,5.94,12.3,9.83c3.96,4.17,9.2,6.73,13.57,10.4
			c3.32,3.38,7.03,6.34,10.6,9.45c5.5,4.6,12.85,6.12,18.43,10.59c2.93,2.23,6.65,3.09,9.58,5.32c5.91,4.69,11.99,9.17,17.79,13.98
			c5.73,2.87,10.44,7.35,16.31,9.96c6.19,2.87,11.04,7.83,17.09,10.94c6.19,4.5,13.08,8,18.78,13.16
			c5.41,3.68,10.68,7.62,16.54,10.59c3.83,1.97,6.99,4.93,10.42,7.48c6.56,3.76,12.6,8.35,19.42,11.67
			c4.02,1.72,6.83,5.31,10.86,7.02c5.82,2.65,10.73,6.88,16.42,9.78c3.49,1.63,5.8,4.98,9.36,6.48c3.5,1.64,6.88,3.58,9.81,6.12
			c4.09,3.67,9.6,5.02,13.98,8.28c5.37,3.91,12.12,5.38,17.26,9.63c2.96,2.31,6.39,3.87,9.74,5.53c3.29,1.64,6.22,4.04,9.83,5.02
			c4.91,1.69,10.19,3.14,14.11,6.75c3.1,2.93,7.33,4.04,11.11,5.82c3.92,1.49,6.63,5.1,10.75,6.24c5.47,1.65,10.19,4.88,14.65,8.34
			c8.89,4.42,17.36,9.73,25.19,15.86c7.22,4.55,14.54,8.93,22.06,12.96c3.47,2.979,6.82,6.09,11.05,8.01
			c5.87,5.2,12.67,9.21,18.65,14.28c6.64,5.46,14.81,8.94,20.61,15.39c3.33,3.47,7.86,5.38,11.44,8.51
			c3.79,4.23,8.46,7.51,12.74,11.2c6.97,3.93,13.31,8.85,20.17,12.98c5.22,4,11.44,6.37,16.72,10.27c5.7,4.34,12.17,7.61,17.19,12.8
			c13.21,5.38,25.33,13.16,38.6,18.48c7.11,3,14.02,7.08,21.86,7.76c4.1-0.04,7.69,2.3,11.73,2.69c6.31,0.55,11.86,4.1,17.99,5.33
			c8.45-0.33,16.71,1.52,24.94,3.21c2.95,0.78,5.9,1.8,9,1.73c13.35,0.03,26.71,0,40.07,0.01c7.88,0.38,15.31-2.78,22.94-4.25
			c6.6-1.1,12.68-4.12,19.18-5.6c4.23-0.37,8.63,0.32,12.69-1.32c5.6-2.11,11.65-2.93,16.99-5.72c5.79-3.13,12.38-4.16,18.34-6.86
			c8.09-2.98,15.82-6.82,23.37-10.97c5.7-3.27,12.53-3.58,18.23-6.87c6.16-3.62,13.55-4.02,19.95-7.09
			c11.01-5.25,21.12-12.46,32.81-16.2c2.38-0.87,4.68-1.96,6.91-3.19c6.54-3.76,14.13-5.3,20.51-9.4c4.01-2.51,8.41-4.26,12.72-6.19
			c2.85-1.27,4.89-3.89,7.89-4.92c5-1.97,10.4-3.07,14.91-6.13c6.63-4.37,14.51-6.16,21.29-10.23c7.51-4.97,16.59-8.09,22.24-15.47
			c3.7-4.97,10.21-6.24,14.48-10.54c1.9-1.91,4.42-2.91,6.9-3.85c6.29-2.39,11.66-6.54,17.53-9.75c2.51-1.36,4.52-3.42,6.87-5.02
			c6.88-3.99,13.28-8.75,20.19-12.71c4.66-3.57,10.13-6.41,16.09-6.81c4.439-0.4,8.22-2.99,11.79-5.46
			c3.56-2.53,7.92-3.44,11.85-5.23c3.8-1.6,6.91-4.39,10.42-6.5c4.52-2.71,7.54-7.16,11.42-10.64c3.65-4.01,7.74-7.59,11.45-11.57
			c3.52-3.87,8.31-6.23,12.08-9.85c8.26-5.59,15.4-12.69,21.59-20.48c1.52-1.8,2.88-3.76,4.55-5.43
			c7.61-6.72,15.92-12.69,22.82-20.19c4.45-4.19,8.29-9.12,13.57-12.35c2.85-1.74,4.88-4.54,7.83-6.15
			c4.17-2.1,6.52-6.48,10.71-8.58c3.01-1.54,4.43-4.78,6.94-6.88c6.55-5.04,12.94-10.3,19.06-15.85c4.27-3.7,9.76-5.43,14.3-8.73
			c4.78-3.33,10.86-4.04,15.61-7.44c3.66-2.49,7.8-4.12,11.54-6.46c3.92-2.28,6.9-5.79,10.65-8.32c2.57-1.75,3.9-4.73,6.37-6.61
			c2.45-1.86,5.24-3.51,6.71-6.36c1.75-3.24,4.23-5.99,7.22-8.14c-0.26-4.9,0.82-10.16-1.62-14.66c-9.3-0.09-18.6-0.12-27.89-0.02
			c-8.51,0.8-16.29,5.83-24.99,5.14c-15.01-0.01-30.01,0-45.01,0c-4.44,0.04-8.99-0.41-13.24,1.11c-2.8,1.09-5.83,0.82-8.75,0.86
			c-11.37,0.01-22.729-0.01-34.09,0c-2.85-0.02-5.46,1.25-8.19,1.84c-4.23,0.46-8.54-0.22-12.73,0.61
			c-4.66,0.94-9.55-0.24-14.08,1.42c-6.8,2.19-14.09,0.03-20.93,1.96c-5.34,0.33-10.76-0.41-15.99,0.98
			c-4.09,0.06-8.04,1.42-12.14,1.14c-2.66-0.14-5.27,0.32-7.84,0.87c-4.67,0.23-9.36,0.02-14.03,0.11
			c-6.33,0.28-12.44-1.79-18.3-3.95c-6.89-0.11-14.09-0.96-20.64,1.68c-4.31,0.22-8.49,1.43-12.81,1.27
			c-5.95-0.33-11.32,3.03-17.24,3.02c-4.19-0.04-8,2.3-12.21,2.04c-6.07-0.21-12.11,0.54-18.02,1.85
			c-6.02,0.25-11.98,1.11-17.91,2.08c-3.78-0.15-7.37,0.97-10.98,1.87c-14.04,0.5-28.27-0.81-42.12,2.04
			c-4.84,0.24-9.71,0.21-14.54,0.04c-4.05-0.71-8.05-1.92-12.18-1.91c-10.69-0.14-21.38-0.04-32.06,0.17
			c-6.61,0.85-13.37,1.05-19.98,0.1c-6-0.48-12.12,0.47-17.98-1.19c-9.69-0.18-19.38-0.02-29.07-0.07
			c-6.94,0.46-13.13-3.44-19.91-4.16c-13.27-2.25-27.01,1.06-40.13-2.33c-5.23-1.15-10.67,0.07-15.87-1.2
			c-5.75-0.72-11.61,0.26-17.34-0.63c-8.77-2.67-17.05-6.96-24.33-12.54c-5.29-2.84-10.8-5.47-16.6-7.07
			c-20.26-0.42-40.55,0.02-60.81-0.22c-5.55-1.47-11.33-0.67-16.94-1.73C610.01,49.98,583,50.12,556,50.06
			c-10.68,0.15-21.48-0.66-31.97,1.7c-6.54,0.4-13.1-0.02-19.64,0.29c-3.82,0.37-7.47,1.91-11.33,1.9
			c-14.36,0.05-28.72-0.07-43.07,0.26c-7.86,1.46-15.9,0.12-23.8,0.96c-5.58,1.75-11.5,0.35-17.19,1.28
			c-7.27,1.19-14.79-0.51-21.95,1.47c-4.34,0.4-8.74-0.12-13.06,0.58c-8.36,1.17-16.99-0.68-25.25,1.37
			c-10.55,0.71-21.23-0.64-31.71,1c-4.78,0.16-9.63-0.32-14.27,1.09c-48.58,0.2-97.17,0.03-145.76,0.09
			c-6.35,0.17-12.77-0.54-19.02,0.82c-4.03,0.03-8.33,2.54-12.15,0.26c-3.57-1.85-8.6-4.79-7.06-9.57
			c0.76-5.23,6.66-6.86,11.18-6.58c4.41,0.4,8.63-1.28,13.04-1.02c50.69-0.11,101.37,0.03,152.06-0.08
			c5.96-1.38,12.18-0.13,18.1-1.78c9.92-0.26,19.86,0.05,29.79-0.17c2.93-0.55,5.87-0.94,8.85-1.16c6.27-1.66,12.84-0.26,19.21-1.12
			c5.92-1.21,12.01-0.11,17.96-0.91c4.58-1.36,9.41-0.41,14.08-1.09c7.3-1.38,14.87,0.34,22.11-1.5c11.93-0.5,23.96,0.48,35.83-1.02
			c11.55-0.2,23.11,0.04,34.65-0.18c3.37-1,6.87-1.02,10.36-1.14c7.47-1.75,15.29,0.33,22.71-1.75c7.75-0.58,15.61,0.58,23.28-0.89
			c18.01-0.18,36.02,0.02,54.03-0.09c2.36-0.13,4.67,0.38,6.99,0.78c2.71,0.36,5.28-1.06,8.01-0.75
			c10.62,2.07,21.66-0.54,32.23,1.87c18.93,0.19,37.85-0.01,56.78,0.12c8.35,0.61,16.76,2.33,24.26,6.2
			c3.19,1.6,5.71,4.24,8.86,5.93c5.7,2.94,10.46,7.87,17.08,8.75c4.58,0.32,9.2-0.08,13.79,0.28c5.94,1.1,12.01,0.46,18.01,0.84
			c12.04,2.71,24.46,1.41,36.69,1.92c6.63,0.93,12.86,3.58,19.41,4.87c11.29,0.27,22.6-0.15,33.9,0.26
			c6.25,1.21,12.65,0.66,18.98,0.8c8.34-0.11,16.72,0.45,24.99-0.88c11.08,0.2,22.44-1.31,33.24,1.87
			c7.22,0.12,14.58,0.72,21.67-0.91c6.41,0.06,12.81-0.49,19.08-1.89c14-0.48,28.39,1.09,41.97-2.98c1.91-0.18,3.87-0.06,5.8-0.35
			c4.62-1.47,9.55-0.44,14.25-1.54c11.46-0.16,22.44-4.35,33.9-4.51c10.51-2.69,21.31-4.29,32.19-3.69
			c3.55-0.05,6.44,2.34,9.59,3.66c5.93,1.88,12.21,0.95,18.33,1.18c3.99,0.21,7.87-1.03,11.88-0.89c3.75,0.03,7.17-2,10.92-1.98
			c2.73-0.02,5.49,0.01,8.14-0.82c7-0.62,14.1,0.3,21.09-0.58c6.09-1.28,12.15-2.88,18.43-2.78c13.65-2.88,27.68-1.64,41.53-1.94
			c7.93-0.29,16.03,0.88,23.8-1.25c2.64-0.82,5.43-0.67,8.17-0.68c15.68,0.02,31.37-0.02,47.05,0.02c7.6,0.82,14.12-4.2,21.57-4.79
			c8.99-2.04,18.26-0.95,27.41-1.23c5.71,0.3,11.75-0.98,17.14,1.52c4.39,1.25,5.63,6.11,7.19,9.84c1.31,3.1,1,6.55,2.12,9.71
			c0.6,3.15,2.2,6.12,2.13,9.39c-0.01,5.81,0.22,11.63-0.18,17.43c-0.77,3.09-2,6.06-3.44,8.89c-2.7,5.42-4.13,11.34-5.71,17.15
			c-1.13,3.77-0.5,7.75-0.7,11.62c0.22,6.49-1.39,12.83-2.9,19.08c-0.13,4.97,0.09,9.96-1.05,14.82
			c-0.16,24.36-0.02,48.73-0.08,73.1c-0.23,3.71,1.3,7.24,1.03,10.96c-0.26,4.29,2.21,8.08,2.82,12.24
			c0.67,4.57,2.02,9.03,2.36,13.64c0.71,3.77,0.6,7.67,1.88,11.32c0.8,4.1,3.49,7.37,5.35,11c2.35,4.2,3.64,8.87,5.85,13.14
			c2.31,5.81,3.31,12.05,5.43,17.93c0.479,9.11,2.81,17.99,5.51,26.69c2.54,10.62,4.55,21.39,7.77,31.85
			c1.41,4.55,1.69,9.34,2.25,14.05c1.8,7.68,0.91,15.73,2.91,23.38c0.811,3.03,0.35,6.37,1.94,9.18c2.18,4.79,4.34,9.71,4.97,14.99
			c0.84,4.79,2.11,9.52,4.05,14c1.93,4.27,2.52,8.96,3.69,13.47c0.54,5.69-0.35,11.49,1.04,17.1c0.49,11.67,0.03,23.35,0.17,35.02
			c-0.12,12.86,0.23,25.73-0.2,38.59c-2.23,12-1.87,24.23-1.92,36.4c0.03,3.7-0.25,7.51,1.11,11.05c1.88,4.89,0.06,10.29,1.88,15.19
			c1.7,5.11,1.06,10.55,1.16,15.83c0.35,4.51-2.09,8.47-3.58,12.55c-3.23,7.96-10.45,13.17-14.8,20.41
			c-1.71,2.68-2.66,5.89-5.07,8.08c-2.8,2.59-4.91,5.98-8.32,7.82c-2.72,1.52-5.36,3.17-7.77,5.13c-4.85,3.95-11.35,4.87-16.38,8.52
			c-2.71,1.79-5.79,2.87-8.65,4.36c-6.26,2.86-11.54,7.53-18.12,9.74c-8.22,2.64-15.87,7.03-24.51,8.25
			c-10.84,1.02-20.88,5.67-31.23,8.77c-5.74,1.21-11.25,3.64-17.15,3.94c-9.08,2.35-18.32,4.47-27.7,5.2
			c-4.77,1.51-10.08,0.86-14.51,3.36c-10.96,5.24-23.601,5.01-34.63,10.07c-11.74,2.62-23.57,4.76-35.38,7.06
			c-4.31,0.86-8.31,2.96-12.71,3.34c-4.9,1.04-9.99,0.4-14.8,1.89c-9.71,1.03-18.26,6.92-28.09,7.16
			c-6.69,2.18-13.74,2.89-20.44,5.1c-12.37,4.51-25.62,5.52-38.42,8.19c-7.48,3.18-15.68,3.11-23.54,4.52
			c-5.63-0.21-11.16,0.8-16.75,1.07c-3.12,0.54-6.1,1.9-9.31,1.87c-5.24-0.03-10.18,1.88-15.25,2.9c-3.78,0.39-7.64-0.25-11.34,0.72
			c-2.89,0.71-5.93,0.08-8.78,0.94c-6.18,2.09-12.84,1.46-19.09,3.28c-9.48,0.62-18.77,2.72-28.25,3.18
			c-3.45-0.12-6.49,1.98-9.91,1.95c-7.99,0.18-15.99-0.17-23.97,0.19c-12.5,2.7-25.46,2.19-38.11,1.04
			c-9.01-0.05-18.01,0.01-27.01-0.03c-4.48-0.13-8.86,1.04-13.34,0.78c-3.29-0.32-6.36,1.13-9.61,1.07
			c-34.68,0.09-69.37-0.09-104.06,0.11c-4.03-0.17-7.98,1.28-11.99,0.59c-3.48-0.74-7.04-0.42-10.55-0.79
			c-3.03-0.79-6.1-1.4-9.18-1.97c-5.64-1.44-11.01-4.33-16.97-4.01c-6.96-1.9-14.26-0.22-21.29-1.58c-2.98-0.5-6.06,0.02-9-0.69
			c-9.37-2.39-18.68-4.98-28.08-7.25c-5.57-0.99-11.35,0.3-16.88-1.03c-6.96-1.04-14.16,0.66-21.01-1.23
			c-11.33-0.85-22.77,0.5-34.06-0.96c-6.07,0.14-11.92-1.6-17.94-2.04c-3.78,0.04-6.97-2.33-10.55-3.08
			c-5.1-0.11-10.15-0.86-15.22-1.36c-4.63-1.45-9.56-0.33-14.27-1.26c-4.5-0.74-9.19,0.26-13.59-1.15
			c-4.49-1.38-9.31-0.88-13.64-2.83c-6.23-1.15-12.68,0.15-18.93-0.76c-2.65-0.83-5.43-0.69-8.15-0.76c-3.75,0-7.12-2.19-10.88-2.01
			c-37.28-0.18-74.56,0.06-111.83-0.12c-5.34-1.11-10.87-0.15-16.13-1.67c-3.29-0.34-6.65,0.13-9.89-0.67
			c-3.11-0.74-6.4-0.11-9.45-1.14c-6.25-1.64-11.98-5.22-18.52-5.65c-4.99-0.9-9.99-2.2-14.51-4.55c-2.94-1.55-6.33-1.76-9.54-2.39
			c-5.47-1.54-11.23-0.21-16.78-1.1c-7.67-1.83-14.82-5.31-22.41-7.45c-2.74-0.4-5.59,0.05-8.26-0.83
			c-7.38-2.43-14.97-4.37-21.88-8.02c-5.94-0.46-11.6-2.78-17.62-2.51c-6.01-1.13-12.13-0.32-18.18-0.9
			c-5.38-1.4-7.43-7.42-7.22-12.44c0.43-5.76-6.43-9.11-6.03-14.92c0.5-5.52-1.18-10.8-2.2-16.15c-0.98-3.65-1.59-7.52-3.96-10.59
			c-3.67-0.44-6.22,2.33-9.21,3.89c-2.12,0.63-4.43,0.46-6.59,0.18c-1.46-1.17-2.84-2.45-4.03-3.88c-0.23-2.27-0.33-4.58,0.09-6.82
			c2.09-2.93,4.43-5.67,6.69-8.45c1.38-3.72-2.06-6.79-4.35-9.24c-4.63-3.87-4.71-10.48-7.74-15.39c-4.68-5.96-11.25-10-16.32-15.57
			c-2.14-2.23-5.2-3.57-6.66-6.4c-2.02-3.56-3.55-7.43-4.66-11.35c-0.46-13.1,0.14-26.24-0.3-39.34c-1.71-5.85,0.06-12.05-1.52-17.9
			c-0.49-3.2-0.05-6.5-1.09-9.61c-0.37-11.42-3.57-22.56-3.16-34.03c0.34-4.55-1.27-8.88-1.32-13.41
			c-1.33-5.72-4.2-11.02-4.72-16.95c-1.83-8.19-2.04-16.61-1.93-24.98c-0.63-8.39-3.42-16.58-3.14-25.06
			c-0.17-2.47-1.17-4.77-1.72-7.15c-0.49-3.53,0.21-7.17-0.79-10.63c-2.16-7.7-4.85-15.28-6.25-23.17
			c-0.15-11.69-0.12-23.41-0.01-35.1c1.69-5.78,0.19-11.87,1.68-17.67c0.14-9.45,2.76-18.7,2.09-28.19
			c-0.71-4.84-4.03-9.05-3.97-14.06c0.07-2.72-1.47-5.35-0.66-8.05c1.33-4.46,0.15-9.23,1.56-13.68c1.7-6.64,1.51-13.61,0.17-20.28
			c0.15-9.17-1.16-18.61,1.88-27.46c0.98-5.87,3.14-11.51,3.39-17.49c0.7-3.97,2.8-7.53,3.61-11.44c0.01-4.82,0.65-9.6,1.84-14.27
			c0.69-4.65-0.18-9.42,0.82-14.04c0.67-5.25,2.69-10.17,4.71-15.01c4.37-17.47,8.61-35.25,16.47-51.56
			c4.08-5.6,5.49-12.42,8.17-18.66c3.15-4.96,4.85-10.71,8.32-15.48C93.88,56.82,96.48,43.62,101.83,31.91z M99.67,75.98
			c-5.73,8.87-7.85,19.46-13.6,28.29c-2.91,5.48-5.03,11.34-8.08,16.75c-2.51,8.08-3.3,16.64-6.42,24.58
			c-2.98,7.17-4.22,14.88-6.84,22.17c-0.49,2.88-0.04,5.83-0.54,8.72c-1.9,9.83-1.61,20.12-5.39,29.53
			c-0.39,5.55-2.3,10.88-2.47,16.45c-0.68,4.8-2.5,9.33-3.72,14c-0.09,4.53-0.59,9.19,0.33,13.65c2.38,6.21,1.39,12.93,1.5,19.42
			c0.21,5.85-3.44,11.07-2.97,16.95c-0.95,6.85,4.13,12.4,4.83,19.02c0.15,2.34,0.45,4.67,0.92,6.97
			c-1.75,8.9-1.83,17.99-1.95,27.04c-2.74,15.49-1.64,31.32-1.81,47c-0.3,5.44,2.04,10.47,3.14,15.69
			c1.86,6.29,2.36,12.85,3.64,19.26c0.42,3.73-0.13,7.52,0.53,11.22c1.31,5.78,1.92,11.68,2.89,17.51c1.45,6.6,0.52,13.4,0.88,20.09
			c2.18,11.47,4.96,22.87,7.84,34.23c0.43,8.24-0.41,16.63,1.8,24.7c0.79,5.32,1.32,10.69,1.39,16.08
			c1.7,5.93,0.64,12.15,1.15,18.22c1.16,6.26,0.47,12.65,0.66,18.98c0.15,9.1-0.28,18.22,0.21,27.3c2.61,4.64,6.75,8.05,10.84,11.34
			c5.37,5.19,11.22,10.09,15.02,16.64c3.72,5.84,4.39,14.28,11.58,17.21c6.94,0.62,12.21-5.17,17.08-9.34
			c9.31-7.03,17.61-15.56,28.11-20.87c4.95-4.56,10.92-7.75,16.24-11.82c5.5-5.91,12.15-10.52,18.42-15.55
			c2.47-2.21,4.88-4.55,7.82-6.15c5.56-3.05,10.44-7.33,16.55-9.3c6.54-2.21,11.44-7.63,18.12-9.5c4.52-1.26,8.01-4.49,12.03-6.72
			c3.13-1.83,6.52-3.23,9.37-5.5c5.18-4.01,11.43-6.32,16.57-10.38c3.65-3.05,8.53-3.88,12.44-6.52c6.79-4.37,15-5.8,21.64-10.45
			c5.92-4.21,13.83-3.91,19.59-8.38c3.51-2.41,7.62-3.68,11.51-5.33c3.94-1.34,6.92-4.53,10.87-5.87c5.48-1.99,10.75-4.5,15.95-7.13
			c5.25-2.7,11.07-3.99,16.34-6.62c8.03-3.94,16.74-6.25,24.7-10.35c5.15-2.64,11.09-3.25,16.19-5.95
			c6.84-4.45,13.09-9.91,20.56-13.34c10.5-4.41,21.59-7.41,31.77-12.57c6.81-4.37,14.52-7.09,21.25-11.61
			c5.3-2.96,10.72-5.81,15.41-9.72c5.55-3.38,12.61-3.24,17.99-7.03c7.49-5.01,16.56-6.48,24.41-10.74
			c5.23-2.78,11.44-2.78,16.85-4.98c6.8-5.37,15.17-8.27,21.77-13.91c-2.29-2.22-4.73-4.28-7.35-6.09
			c-4.21-2.93-9.46-4.18-13.19-7.83c-1.93-1.84-4.3-3.1-6.59-4.41c-6.75-4.03-12.88-9.01-18.55-14.42
			c-2.89-2.62-6.64-3.97-9.68-6.36c-6.72-5.65-12.7-12.27-20.46-16.54c-8.93-7.49-18.99-13.46-27.95-20.9
			c-6.54-3.76-12.13-9.05-19.08-12.08c-4.57-2.22-8.33-5.73-12.78-8.14c-2.54-1.41-5.3-2.55-7.37-4.66
			c-4.6-4.91-11.84-5.75-16.75-10.27c-3.21-3.06-7.68-4.07-11.1-6.79c-3.34-2.51-7.26-4.05-11.1-5.58
			c-4.14-1.59-7.34-4.81-11.19-6.9c-3.98-2.47-8.72-3.26-12.79-5.53c-6.11-3.35-13.27-4.72-18.75-9.19
			c-5.75-4.15-12.13-7.32-18.07-11.19c-6.8-2.68-12.44-7.46-19-10.61c-3.58-1.67-6.45-4.43-9.69-6.62
			c-2.98-2.15-6.34-3.67-9.49-5.53c-5.56-4.63-12.21-7.62-18.05-11.84c-8.47-6.14-18.61-9.62-26.67-16.34
			c-3.4-2.7-7.45-4.44-10.82-7.17c-4.74-4.15-11.24-5.76-15.59-10.41c-2.89-2.97-7.02-4.16-10.2-6.76
			c-4.78-4.01-10.37-6.87-15.29-10.68c-3.41-2.85-8.21-3.52-11.12-6.97c-3.09-3.5-7.72-4.85-11.53-7.34
			c-3.86-2.02-6.67-5.62-10.78-7.22c-3.89-1.52-5.67-5.81-9.41-7.56c-4.79-2.37-9.44-4.99-13.62-8.34
			c-8.26-4.47-17.16-8.52-23.53-15.65c-2.66-2.78-6.21-4.43-9.11-6.91c-3.56-3.12-7.89-5.32-10.83-9.1
			c-2.94-3.65-7.88-4.65-11.11-7.96C104.14,77.93,102.45,75.29,99.67,75.98z M1392.98,106.47c-2.96,3.22-7.13,4.82-10.45,7.56
			c-4.11,3.52-9.47,4.97-13.88,8.03c-3.01,2.07-6.31,3.64-9.77,4.77c-5.98,1.99-10.97,5.92-16.19,9.3c-2.98,1.99-4.98,5.13-8.1,6.91
			c-2.66,1.6-5.74,2.85-7.32,5.7c-2.01,3.31-5.44,5.25-8.17,7.85c-3.75,3.64-8.4,6.19-12.13,9.87c-3.54,3.51-8.15,5.74-11.49,9.48
			c-2.84,3.23-6.69,5.33-9.45,8.62c-3.26,3.78-7.71,6.32-10.59,10.44c-5.04,4.22-10.43,8.2-14.76,13.18
			c-3.31,5.53-8.1,9.9-12.8,14.21c-4.46,2.77-7.18,7.71-12.11,9.78c-5.69,2.69-10.12,7.27-14.32,11.82
			c-2.86,3.16-6.38,5.74-8.66,9.4c-2.32,3.64-6.29,5.65-9.29,8.62c-4.12,4.1-10,5.35-14.89,8.22c-6.79,4.01-14.06,7.13-20.95,10.95
			c-4.88,2.68-10.75,2.56-15.6,5.27c-2.5,1.51-4.79,3.31-7.13,5.03c-2.86,2.18-6.26,3.54-8.93,5.97c-3.47,3.18-8.04,4.62-11.93,7.16
			c-3.08,1.84-5.56,4.62-8.9,6.01c-5.65,2.41-10.98,5.52-16.02,9.01c-6.58,4.34-13.42,8.45-19.07,14.03
			c-3.91,3.73-9.1,5.54-13.43,8.67c-2.18,1.56-4.63,2.67-7.07,3.75c-4.29,1.85-7.9,4.94-12.22,6.73c-3.93,1.62-7.91,3.13-11.53,5.38
			c-6.71,4.14-14.89,5.21-21.37,9.77c-4.53,3.91-10.83,4.38-15.74,7.67c-6.19,4.16-13.51,6.01-20.01,9.56
			c-3.65,2-7.58,3.4-11.25,5.34c10.4,6.24,23.03,5.45,34.16,9.6c11.35,3.9,21.99,11.23,34.42,10.91c4.88,0.89,9.56,2.77,14.49,3.59
			c6.25,1,11.72,4.47,17.78,6.12c5.55,1.64,11.32,2.37,16.84,4.14c6.83,0.22,12.96,3.41,19.25,5.72c6.76,1.8,13.66,3.17,20.27,5.55
			c3.59,1.97,7.06,4.24,11.01,5.49c7.61,2.48,14.79,6.08,22.46,8.4c7.95,2.26,16.01,4.12,23.73,7.18
			c10.24,2.42,20.04,6.42,29.56,10.88c6.03,2.78,11.19,7.1,17.28,9.75c4.18,1.96,7.55,5.29,11.86,7.05
			c8.5,3.6,16.45,8.5,23.37,14.64c3.96,3.84,9.34,5.7,13.47,9.37c6.64,3.55,11.96,9.19,19.1,11.88c4.57,1.49,7.54,5.44,11.68,7.66
			c6.45,3.2,11.19,8.83,17.22,12.68c6.52,6.98,15.77,10.65,22.11,17.86c4.06,4.82,11.22,4.94,15.47,9.51
			c2.67,2.91,6.54,4.11,9.79,6.22c4.55,2.51,8.89,5.54,13.86,7.21c4.65,1.72,9.49,3.32,13.42,6.48c5.83,3.74,10.08,9.53,16.41,12.57
			c6.78,4.37,14.54,7.08,20.85,12.17c4.44,2.64,9.45,4.14,14.14,6.28c3.12-6.6-1.79-13.18-1.05-19.91
			c0.32-8.23-0.9-16.64,1.07-24.71c0.26-4.44-0.15-8.91,0.27-13.34c1.15-5.93,0.54-11.99,0.71-17.98c-0.12-19,0.24-38.02-0.14-57.01
			c-1.24-5.58-0.45-11.31-0.97-16.94c-1.45-5.46-1.96-11.17-4.34-16.35c-3.53-6.99-3.07-15.13-6.41-22.2
			c-3.86-8.12-3.85-17.21-5.09-25.91c0.21-4.15-0.83-8.16-1.8-12.15c-1.36-9.7-2.62-19.52-6.19-28.72
			c-2.6-6.66-2.44-13.91-4.58-20.66c-0.71-2.54-0.07-5.28-0.88-7.78c-4.39-12.24-5.32-25.84-12.51-36.98
			c-3.4-7.64-6.4-15.5-8.86-23.49c-0.5-4.58,0.08-9.25-1.07-13.76c-1.94-8.28-2.85-16.77-4.99-24.99
			c-0.19-26.03-0.01-52.06-0.09-78.09c-0.23-5.11,2.34-9.88,1.95-15.01c-0.25-3.13,0.9-6.08,1.28-9.15
			c1.35-6.17-0.23-12.64,1.64-18.73c-0.36-4.76,2.27-9.68-0.08-14.17C1397.03,102.87,1394.81,104.46,1392.98,106.47z M942.46,403.12
			c-5.49,1.58-10.83,3.64-16.36,5.07c-6.07,1.49-11.31,5.04-17.21,6.98c-8,2.7-14.69,8.15-22.76,10.71
			c-6.91,2.79-13.72,5.88-20.95,7.77c-7.29,1.97-14.13,5.17-21.32,7.43c-5.08,1.79-10.67-0.09-15.7,1.92
			c-12.54,2.57-24.21,8.89-37.1,9.93c-16.7,0.04-33.4,0.06-50.1-0.02c-6.85-0.59-13.37-3.1-19.97-4.82
			c-5.68-0.01-11.41-0.29-16.79-2.28c-9.04-3.13-18.46-4.66-27.73-6.86c-3.3-0.81-6.29-2.55-9.63-3.16
			c-7.79-1.74-15.04-5.21-22.1-8.85c-7.14-2.75-13.37-7.34-20.33-10.46c-3.01-1.17-5.87-2.68-8.56-4.44
			c-1.99-1.14-4.43-2.91-6.72-1.54c-4.76,2.91-9.74,5.48-14.33,8.68c-6.18,4.74-13.13,8.42-20.17,11.7
			c-5.29,1.1-10.62,2.02-15.82,3.5c-4.85,1.94-9.17,4.98-14.17,6.57c-5.02,1.55-9.2,4.9-14.04,6.85c-3.77,1.67-7.86,2.63-11.42,4.77
			c-3.6,1.95-6.41,5.14-10.29,6.59c-9.05,4.22-18.09,8.55-26.56,13.86c-6.32,4.06-14.09,4.72-20.68,8.23
			c-4.4,2.48-9.45,3.49-13.79,6.09c-3.26,1.62-5.06,5.15-8.41,6.63c-4.24,2.1-8.56,4.06-12.74,6.28
			c-5.47,3.06-11.95,3.58-17.44,6.59c-7.39,4.2-15.88,5.86-23.35,9.89c-6.69,3.68-14.48,4.81-20.95,8.94
			c-5.52,3.53-12.45,4.03-17.69,8.1c-6.09,4.57-14.01,5.42-20.39,9.47c-4.98,3.07-10.89,4.22-15.77,7.49
			c-4.7,2.97-10.04,4.64-15.09,6.87c-4.87,2.81-9.65,5.8-14.78,8.12c-4.06,1.73-7.27,4.9-11.28,6.73
			c-5.62,2.78-10.02,7.53-15.77,10.08c-5.9,2.72-11.39,6.27-17.47,8.62c-9.27,4.01-17.99,9.18-26.39,14.76
			c-4.76,2.75-8.02,7.35-12.51,10.47c-4.44,3.15-7.7,7.7-12.35,10.58c-3.1,1.8-5.45,4.61-8.54,6.41c-8.24,3.97-15.36,9.89-22.11,16
			c-3.66,3.05-8.18,4.94-11.38,8.57c-5.52,3.13-9.83,7.8-14.92,11.54c-0.21,3.34-0.41,6.93,1.4,9.92c3.78,7,5.42,14.86,7.28,22.53
			c0.74,3.23-0.54,6.86,1.38,9.79c2.24,3.62,4.1,7.44,6.05,11.22c2.79,0.26,5.6,0.06,8.4,0.17c5.24,0.19,10,2.92,15.25,3
			c9.98,1.7,19.43,5.55,29.02,8.69c9.85,0.73,19.2,4.4,28.67,7.03c3.98,0.35,8-0.15,11.96,0.37c3.85,1.21,7.66,2.59,11.64,3.37
			c5.79,1.13,11.11,3.89,16.89,5.04c5.11,1.07,9.84,3.44,14.97,4.45c5.03,1.77,10.43,1.58,15.56,2.84
			c6.67,0.27,13.38-0.21,19.98,0.94c36.69,0.13,73.38-0.05,110.07,0.09c4.42-0.25,8.52,1.84,12.92,1.95
			c2.02,0.09,4.07-0.05,6.09,0.3c6.98,1.99,14.41-0.18,21.45,1.58c5.91,1.51,12.05,1.53,18.05,2.59c4.71,1.29,9.69,0.24,14.44,1.43
			c4.75,0.04,9.47,0.41,14.02,1.91c7.77,0.36,15.3,2.47,22.89,4.03c3.94,0.55,8.01-0.01,11.86,1.26c6.55,2.15,13.54,0.38,20.23,1.69
			c6.64,0.66,13.46-0.59,19.98,1.2c8.22,0.59,16.63-0.85,24.69,1.31c5.27,1.67,10.94-0.03,16.19,1.76c3.83,1.36,7.96,0.9,11.86,1.99
			c7.68,2.01,15.521,3.35,23.29,4.95c7.77,0.48,15.78-0.9,23.27,1.85c6.43,0.11,12.32,3.33,18.77,3.25
			c3.78-0.17,7.11,2.21,10.89,2.02c5.64-0.05,11.37,0.43,16.88-1.02c5.94-1.56,12.12-0.7,18.18-0.91c45.33,0.13,90.66-0.21,136-0.19
			c10.32-0.15,20.74,0.76,30.99-0.76c8.68-0.38,17.38,0.03,26.06-0.29c3.54-1.07,7.24-0.85,10.89-1.07
			c4.76-0.73,9.48-1.78,14.14-3.01c3.81-1.33,7.96-0.43,11.84-1.57c6.09-1.55,12.43-1.63,18.62-2.57c4.04-1.26,8.35-0.24,12.46-1.16
			c3.9-0.77,8,0.14,11.83-1.15c3.86-1.26,7.98-1.03,11.86-2.14c13-3.15,26.32-4.36,39.58-5.51c7.57-2,15.4-2.87,22.84-5.37
			c7.93-1.82,16.09-2.63,23.83-5.24c12.26-3.96,25.22-4.92,37.55-8.54c3.75-1.41,7.45-3.24,11.52-3.44
			c3.75-0.1,7.12-2.32,10.93-2.05c4.64,0.12,8.99-1.82,13.59-2.19c6.08-0.68,11.55-3.68,17.56-4.68c6.06-1.67,12.42-1.69,18.48-3.34
			c4.88-1.03,9.47-3.06,14.33-4.17c4.67-1.54,9.61-1.97,14.28-3.54c6.21-1.59,12.29-3.99,18.75-4.3
			c10.311-2.88,20.98-4.06,31.41-6.5c10.6-2.15,20.92-5.45,31.23-8.72c3.55-1,6.48-3.94,10.37-3.66c9.95-1.19,19.85-3.89,28.7-8.67
			c4.8-2.05,9.71-3.97,13.96-7.08c3.59-2.79,8.12-3.73,12.05-5.91c3.74-1.79,7.08-4.29,10.82-6.08c5.63-2.3,10.72-5.94,14.89-10.35
			c3.02-4.62,7.12-8.46,9.62-13.42c1.53-3.09,5.2-4.44,6.47-7.71c1.66-2.93,2.2-6.29,2.229-9.62c-6.49-3.06-13.75-4.4-19.72-8.59
			c-7.97-3.4-14.53-9.28-22.5-12.66c-3.34-1.33-5.23-4.65-8.25-6.44c-3.4-2.32-7.38-3.83-10.23-6.87
			c-4.34-4.61-10.93-5.56-16.23-8.65c-4.47-2.68-9.47-4.32-13.87-7.1c-6.29-4.1-13.11-7.38-18.93-12.17
			c-5.62-3.64-9.95-8.98-16.021-11.96c-4.58-2.2-7.47-6.6-11.899-8.99c-3.4-1.92-5.68-5.23-8.98-7.28c-3.46-2.2-6.14-5.4-9.7-7.43
			c-3.59-2.35-7.51-4.15-10.96-6.7c-3.97-2.9-8.84-4.32-12.52-7.66c-3.69-3.21-8.18-5.2-12.42-7.52
			c-4.33-3.32-8.68-6.62-12.58-10.42c-4.47-4.02-10.66-4.97-15.49-8.38c-4.24-2.95-9.12-4.76-13.51-7.45
			c-3.3-1.93-6.09-4.68-9.66-6.12c-3.15-1.35-6.31-2.71-9.24-4.47c-5.62-3.46-12.2-4.68-18.37-6.75
			c-5.62-2.27-11.25-4.74-17.28-5.69c-10.48-2.87-20.5-7.2-31.05-9.84c-6.63-1.3-11.72-6.32-18.28-7.89
			c-10.96-2.41-20.771-8.55-32.021-9.86c-8.16-1.03-15.58-4.72-23.6-6.26c-7.81-2.52-15.81-4.34-23.66-6.69
			c-6.4-0.28-12.61-1.95-18.83-3.32c-6.67-2.94-12.84-7.23-20.06-8.74c-5.16-1.33-10.21-2.93-15.18-4.82
			c-5.54-0.89-10.97-2.52-16.61-2.58c-3.75-0.88-7.05-2.96-10.53-4.5C950.83,402.22,946.47,402.93,942.46,403.12z"/>
	</g>
	<path fill="#010101" d="M974.05,182.01c4.13-6.29,11.1-11.69,19.02-11.02c3.96-0.6,6.56,2.95,8.74,5.68
		c2.27,3.15,5.34,5.59,7.68,8.67c0.32,2.73,0.479,5.72-1.46,7.94c-4.1,5.64-7.32,12-12.51,16.78c-2.32-0.03-4.65,0.18-6.93-0.2
		c-2.21-1.41-4.33-2.94-6.45-4.46c-3.56-2.5-5.41-6.6-8.54-9.54C973.8,191.19,971.43,186.38,974.05,182.01z"/>
	<path fill="#010101" d="M526.4,180.99c2.36-2.85,6.3-1.88,9.53-1.8c5.74,1.78,9.77,6.56,15.01,9.28c2.16,1.2,4.62,2.52,5.31,5.1
		c0.53,4.09,0.55,8.34-0.84,12.27c-3.71,1.5-7.11,3.6-10.42,5.8c-2.61,1.87-5.97,1.36-8.96,1.21c-6.32-2.74-8.05-10.02-11.18-15.5
		C521.83,192.3,521.49,184.99,526.4,180.99z"/>
</g>
<g id="Layer_2">
	<g id="Layer_3">
		<path fill="#FFFFFF" d="M929.634,402.847c37.718,55.662,19.119,67.666,10.366,95.487s-54.202,16.557-68.081,6.298
			S844.078,491.356,819,445s-50.798-66.11-57.667-66s103.928-26.468,116-26C905.615,354.097,899.378,358.198,929.634,402.847z"/>
		<path fill="#E23333" d="M964,488"/>
	</g>
	<path d="M947.316,413.215c-7.172-14.748-17.528-28.084-29.16-39.57c-5.772-5.7-12.12-10.822-18.778-15.447
		c-3.022-2.1-6.183-3.991-9.4-5.773c-2.454-1.359-6.918-2.499-8.443-3.961c-4.652-4.462-11.732,2.6-7.071,7.071
		c1.81,1.736,3.684,2.966,6.208,3.292c2.104,0.272,5.119,2.698,6.968,3.76c6.182,3.55,11.903,7.838,17.306,12.471
		c10.694,9.172,19.882,20.063,27.424,31.941c11.189,17.621,15.248,37.087,13.958,57.82c-1.164,18.705-8.128,38.963-25.851,47.863
		c-9.806,4.924-22.314,2.667-32.225-0.531c-11.12-3.587-21.525-10.025-30.211-17.778c-8.682-7.749-14.529-17.884-20.355-27.827
		c-7.347-12.537-13.895-25.525-20.779-38.316c-6.092-11.319-13.316-21.062-22.983-29.586c-9.359-8.253-19.812-15.185-29.387-23.18
		c-4.913-4.102-12.027,2.934-7.071,7.071c9.959,8.315,20.766,15.577,30.501,24.162c10.595,9.344,17.159,20.63,23.719,32.962
		c12.255,23.036,23.466,49.574,44.448,66.114c17.224,13.578,41.375,23.961,63.481,17.82c19.349-5.375,30.361-24.83,34.527-43.15
		C959.108,458.596,957.159,433.455,947.316,413.215z"/>
	<path d="M900.821,460.671c-4.553-30.302-22.326-62.599-50.298-76.988c-5.723-2.944-10.783,5.684-5.047,8.635
		c25.886,13.316,41.505,43.079,45.702,71.012C892.134,469.689,901.769,466.977,900.821,460.671z"/>
	<g id="Layer_4">
		<path fill="#010101" d="M980.63,291.19c4.77-2.14,8.75-6.48,14.39-6.11c3.42-0.5,5.51,2.8,7.59,4.94c-0.15,2.46,0.2,5-0.42,7.42
			c-3.91,4.66-10.47,5.44-15.15,9.07c-3.36,2.58-7.62,3.57-11.05,6.04c-3.86,2.43-6.76,6.24-11.05,7.98
			c-4.92,1.99-9.82,4.03-14.56,6.41c-9.41,4.08-17.09,11.07-25.92,16.13c-5.82,3.03-12.44,3.87-18.48,6.33
			c-6.95,2.88-14.53,3.22-21.93,3.77c-5.28,1.3-10.62,2.62-15.45,5.19c-10.09,5.85-22.07,6.47-32.93,10.23
			c-3.49,1.11-6.98,2.61-10.71,2.41c-6.73-0.16-13.21,2.31-19.94,2.06c-7.18-0.19-14.08,1.99-21.03,3.45
			c-6.1,1.28-12.17,2.68-18.17,4.33c-10.77,1.73-21.76,1.13-32.54-0.01c-7.45-1.86-14.76-4.38-22.45-4.87
			c-9.48-0.42-18.65-2.78-27.89-4.81c-7.13-0.97-13.89-3.52-20.93-4.88c-5.27-1.41-10.79-1.91-15.84-4.05
			c-3.16-1.42-5.99-3.44-9.02-5.08c-5.1-2.56-11.05-3.49-15.45-7.33c-4.57-4.43-10.55-6.84-15.83-10.26
			c-9.25-4-18.4-9.2-24.35-17.57c-4.46-3.72-7.78-8.56-9.99-13.91c-0.23-2.05-0.25-4.13,0-6.18c1.01-1.69,2.29-3.19,3.43-4.79
			c1.83-0.03,3.69-0.16,5.52,0.1c4.42,2.62,8.16,6.33,10.94,10.63c3.15,3.92,6.52,7.71,10.19,11.14c5.63,3.52,11.86,5.99,17.63,9.29
			c5.01,2.98,9.43,6.96,14.88,9.2c8.8,3.83,16.96,9.58,26.61,11.09c7.61,3.53,15.95,4.83,24.21,5.83
			c6.73,1.83,13.53,3.34,20.22,5.35c5.57,0.7,11.3-0.3,16.84,0.81c13.29,4.25,27.61,5.65,41.41,3.34
			c6.18-1.32,12.25-3.16,18.59-3.64c5.49-0.29,10.35-3.87,15.95-3.3c5.24,0.21,10.47-0.24,15.51-1.74
			c10.58-1.04,21.38-1.89,31.26-6.15c4.73-1.78,9.67-2.93,14.46-4.56c4.91-1.38,9.28-4.1,13.98-6c7.72-2.13,15.67-3.44,23.7-3.53
			c8.5-1.91,16.74-5.12,24.51-9.04c4.64-4.64,10.86-6.99,15.87-11.16c5.15-4.05,12.08-4.47,17.37-8.27
			c5.05-3.57,10.98-5.67,15.81-9.55C973.56,294.6,977.16,292.98,980.63,291.19z"/>
	</g>
</g>
<g id="Layer_5">
</g>
</svg>
